<?xml version="1.0" encoding="UTF-8" standalone="no"?>
<!DOCTYPE svg PUBLIC "-//W3C//DTD SVG 1.1//EN" "http://www.w3.org/Graphics/SVG/1.1/DTD/svg11.dtd">
<svg version="1.1" xmlns="http://www.w3.org/2000/svg" xmlns:xlink="http://www.w3.org/1999/xlink" preserveAspectRatio="xMidYMid meet" viewBox="0 0 640 640" width="640" height="640"><defs><path d="M241.14 332.36L319.98 364.99L319.98 228.93L241.14 196.29L241.14 332.36ZM256.18 241.75C256.28 241.94 256.78 242.87 257.67 244.54L251.88 244.54C252.78 242.87 253.27 241.94 253.37 241.75C252.17 242.16 250.81 241.87 249.86 240.85C248.5 239.38 248.5 237 249.86 235.54C250.18 235.18 251.82 233.41 254.77 230.22C257.73 233.41 259.37 235.18 259.7 235.54C261.06 237 261.06 239.38 259.7 240.85C258.75 241.87 257.38 242.16 256.18 241.75ZM258.44 224.03L251.1 224.03L249.7 227.69L245.95 227.69L253 210.6L256.61 210.6L263.68 227.69L259.84 227.69L258.44 224.03ZM257.29 221.02L254.78 214.48L252.27 221.02L257.29 221.02Z" id="fz0MoJsPQ"></path><path d="M385.22 356.42L382.71 349.88L387.73 349.88L385.22 356.42Z" id="hkYl1uo27"></path><path d="M385.22 356.42L382.71 349.88L387.73 349.88L385.22 356.42Z" id="d382QCAug9"></path><path d="M320.02 396.07L398.86 363.44L398.86 227.38L320.02 260.01L320.02 396.07ZM383.82 329.16C383.72 328.97 383.22 328.04 382.33 326.37L388.12 326.37C387.22 328.04 386.73 328.97 386.63 329.16C387.83 328.75 389.19 329.04 390.14 330.06C391.5 331.53 391.5 333.91 390.14 335.37C389.82 335.73 388.18 337.5 385.22 340.69C382.27 337.5 380.63 335.73 380.3 335.37C378.94 333.9 378.94 331.53 380.3 330.06C381.25 329.04 382.62 328.75 383.82 329.16ZM383.39 360.31L376.32 343.22L380.16 343.22L381.56 346.88L388.9 346.88L390.3 343.22L394.05 343.22L387 360.31L383.39 360.31ZM387.73 349.88L382.71 349.88L385.22 356.42L387.73 349.88Z" id="apz0jdKK3"></path><path d="M320 260.01L320 312.5L271.41 312.5L320 260.01Z" id="c9XRuRa0t0"></path><path d="M320 364.99L320 312.5L368.59 312.5L320 364.99Z" id="a1zig6j17"></path></defs><g><g><g><use xlink:href="#fz0MoJsPQ" opacity="1" fill="#ed1c24" fill-opacity="1"></use><g><use xlink:href="#fz0MoJsPQ" opacity="1" fill-opacity="0" stroke="#000000" stroke-width="1" stroke-opacity="0"></use></g></g><g><use xlink:href="#hkYl1uo27" opacity="1" fill="#ed1c24" fill-opacity="1"></use><g><use xlink:href="#hkYl1uo27" opacity="1" fill-opacity="0" stroke="#000000" stroke-width="1" stroke-opacity="0"></use></g></g><g><use xlink:href="#d382QCAug9" opacity="1" fill="#ed1c24" fill-opacity="1"></use><g><use xlink:href="#d382QCAug9" opacity="1" fill-opacity="0" stroke="#000000" stroke-width="1" stroke-opacity="0"></use></g></g><g><use xlink:href="#apz0jdKK3" opacity="1" fill="#ed1c24" fill-opacity="1"></use><g><use xlink:href="#apz0jdKK3" opacity="1" fill-opacity="0" stroke="#000000" stroke-width="1" stroke-opacity="0"></use></g></g><g><use xlink:href="#c9XRuRa0t0" opacity="1" fill="#ffffff" fill-opacity="1"></use><g><use xlink:href="#c9XRuRa0t0" opacity="1" fill-opacity="0" stroke="#000000" stroke-width="1" stroke-opacity="0"></use></g></g><g><use xlink:href="#a1zig6j17" opacity="1" fill="#ffffff" fill-opacity="1"></use><g><use xlink:href="#a1zig6j17" opacity="1" fill-opacity="0" stroke="#000000" stroke-width="1" stroke-opacity="0"></use></g></g></g></g></svg>